<?xml version="1.0" encoding="UTF-8"?> <svg xmlns="http://www.w3.org/2000/svg" id="Layer_1" version="1.1" viewBox="0 0 229 82.3"><defs><style> .st0 { fill: #61666b; } .st1 { fill: #e94570; } </style></defs><path class="st0" d="M113.7,40.4h-25.1c-4.6,0-8.3-3.7-8.3-8.3s3.7-8.3,8.3-8.3h31.5l8.1-12.3h-39.6c-9.3,0-17.2,6.2-19.8,14.8C65.1,11.2,51.4,0,35.1,0S.3,15.6.3,34.8s.5,7,1.6,10.3h13.2c-1.6-3.1-2.5-6.6-2.5-10.3,0-12.4,10.1-22.6,22.6-22.6s22.6,10.1,22.6,22.6-2.1,11-5.9,15.2l-1.6,1.8,9.8,7.4,1.2-1.3c4.5-5.1,7.4-11.3,8.4-17.9,1,2.6,2.6,4.9,4.5,7,3.9,4,9.1,6.3,14.6,6.3h25.1c4.7,0,8.3,3.4,8.3,7.9s-3.7,8.3-8.3,8.3h-40.5l16.2,12.3h24.3c11.4,0,20.6-9.2,20.6-20.6s-9.2-20.6-20.6-20.6"></path><path class="st1" d="M56.9,59.2H8.1c6.4,7.5,15.9,12.3,26.5,12.3h41.6l-16.1-12.3h-3.1Z"></path><g><g><path class="st0" d="M150.1,52.9c-.3.4-.7.7-1.2.9-.5.2-1,.3-1.5.3s-1.4-.2-2-.5c-.6-.3-1.3-.9-2.1-1.7-.9-.1-1.7-.4-2.5-.9-.7-.5-1.3-1.1-1.7-1.8-.4-.7-.6-1.6-.6-2.5s.2-1.9.7-2.7c.5-.8,1.1-1.4,2-1.9s1.8-.7,2.9-.7,2,.2,2.8.7,1.5,1.1,2,1.9c.5.8.7,1.7.7,2.7s-.3,2.2-1,3.1c-.7.9-1.5,1.5-2.6,1.9.2.3.5.4.7.5.2.1.5.2.7.2.6,0,1.2-.3,1.7-.8l1,1.2ZM141.2,48.4c.3.5.7.9,1.1,1.2s1,.4,1.6.4,1.1-.1,1.6-.4.9-.7,1.1-1.2c.3-.5.4-1.1.4-1.7s-.1-1.2-.4-1.7c-.3-.5-.7-.9-1.1-1.2-.5-.3-1-.4-1.6-.4s-1.1.1-1.6.4c-.5.3-.9.7-1.1,1.2-.3.5-.4,1.1-.4,1.7s.1,1.2.4,1.7Z"></path><path class="st0" d="M152.4,50.8c-.8-.8-1.2-1.9-1.2-3.4v-5.7h2.4v5.6c0,1.8.8,2.7,2.3,2.7s1.3-.2,1.7-.7c.4-.4.6-1.1.6-2.1v-5.6h2.3v5.7c0,1.5-.4,2.6-1.2,3.4-.8.8-1.9,1.2-3.4,1.2s-2.6-.4-3.4-1.2Z"></path><path class="st0" d="M169.2,49.6h-4.7l-.9,2.2h-2.4l4.5-10.2h2.3l4.5,10.2h-2.5l-.9-2.2ZM168.5,47.8l-1.6-3.9-1.6,3.9h3.2Z"></path><path class="st0" d="M173.6,41.6h2.4v8.2h5.1v1.9h-7.4v-10.2Z"></path><path class="st0" d="M182.4,41.6h2.4v10.2h-2.4v-10.2Z"></path><path class="st0" d="M189.3,43.6h-3.3v-1.9h8.9v1.9h-3.3v8.2h-2.3v-8.2Z"></path><path class="st0" d="M201.6,48.2v3.6h-2.4v-3.6l-3.9-6.5h2.5l2.7,4.5,2.7-4.5h2.3l-3.9,6.6Z"></path><path class="st0" d="M140.1,69.1c-.7-.2-1.4-.5-1.8-.8l.8-1.8c.4.3,1,.6,1.6.8s1.2.3,1.8.3,1.2,0,1.5-.3c.3-.2.5-.5.5-.8s0-.4-.3-.6c-.2-.2-.4-.3-.7-.4s-.7-.2-1.2-.3c-.8-.2-1.4-.4-1.9-.6-.5-.2-.9-.5-1.3-.9-.4-.4-.5-.9-.5-1.6s.2-1.1.5-1.6c.3-.5.8-.9,1.4-1.1s1.4-.4,2.4-.4,1.3,0,1.9.2c.6.2,1.2.4,1.6.7l-.7,1.8c-.9-.5-1.9-.8-2.8-.8s-1.1.1-1.5.3c-.3.2-.5.5-.5.8s.2.6.5.8c.4.2.9.3,1.7.5.8.2,1.4.4,1.9.6.5.2.9.5,1.3.9.4.4.5.9.5,1.6s-.2,1.1-.5,1.6c-.3.5-.8.9-1.5,1.1-.6.3-1.4.4-2.4.4s-1.6-.1-2.3-.3Z"></path><path class="st0" d="M148.3,59.1h2.4v10.2h-2.4v-10.2Z"></path><path class="st0" d="M159.9,64h2.1v4.1c-.6.4-1.2.7-1.9,1-.7.2-1.5.3-2.2.3-1.1,0-2-.2-2.8-.7-.8-.5-1.5-1.1-2-1.9s-.7-1.7-.7-2.7.2-1.9.7-2.7c.5-.8,1.1-1.4,2-1.9.8-.5,1.8-.7,2.9-.7s1.7.2,2.4.5c.7.3,1.3.7,1.8,1.3l-1.5,1.4c-.7-.8-1.6-1.1-2.6-1.1s-1.2.1-1.7.4-.9.7-1.2,1.1c-.3.5-.4,1.1-.4,1.7s.1,1.2.4,1.7c.3.5.7.9,1.2,1.2.5.3,1.1.4,1.7.4s1.3-.1,1.8-.4v-3Z"></path><path class="st0" d="M173.6,59.1v10.2h-1.9l-5.1-6.2v6.2h-2.3v-10.2h1.9l5,6.2v-6.2h2.3Z"></path><path class="st0" d="M182.7,67h-4.7l-.9,2.2h-2.4l4.5-10.2h2.3l4.5,10.2h-2.5l-.9-2.2ZM181.9,65.3l-1.6-3.9-1.6,3.9h3.2Z"></path><path class="st0" d="M188.7,61h-3.3v-1.9h8.9v1.9h-3.3v8.2h-2.3v-8.2Z"></path><path class="st0" d="M196.5,68.2c-.8-.8-1.2-1.9-1.2-3.4v-5.7h2.4v5.6c0,1.8.8,2.7,2.3,2.7s1.3-.2,1.7-.7c.4-.4.6-1.1.6-2.1v-5.6h2.3v5.7c0,1.5-.4,2.6-1.2,3.4-.8.8-1.9,1.2-3.4,1.2s-2.6-.4-3.4-1.2Z"></path><path class="st0" d="M213.3,69.2l-2-2.8h-2.2v2.8h-2.4v-10.2h4.4c.9,0,1.7.2,2.3.5s1.2.7,1.5,1.3c.4.6.5,1.2.5,2s-.2,1.4-.5,2c-.4.5-.9,1-1.5,1.3l2.3,3.3h-2.5ZM212.7,61.4c-.4-.3-.9-.5-1.6-.5h-1.9v3.5h1.9c.7,0,1.2-.2,1.6-.5s.6-.7.6-1.3-.2-1-.6-1.3Z"></path><path class="st0" d="M225.4,67.3v1.9h-7.9v-10.2h7.7v1.9h-5.3v2.2h4.7v1.8h-4.7v2.4h5.5Z"></path></g><g><path class="st0" d="M227.7,59.4l-.3-.4h-.3v.4h-.3v-1.4h.6c.1,0,.2,0,.3,0s.2,0,.2.2c0,0,0,.2,0,.3s0,.2,0,.3c0,0-.1.1-.2.2l.3.4h-.3ZM227.7,58.4c0,0-.1,0-.2,0h-.3v.5h.3c0,0,.2,0,.2,0,0,0,0-.1,0-.2s0-.1,0-.2Z"></path><path class="st0" d="M227.4,57.1c-.9,0-1.6.7-1.6,1.6,0,.9.7,1.6,1.6,1.6.9,0,1.6-.7,1.6-1.6,0-.9-.7-1.6-1.6-1.6ZM227.4,60c-.7,0-1.3-.6-1.3-1.3,0-.7.6-1.3,1.3-1.3.7,0,1.3.6,1.3,1.3,0,.7-.6,1.3-1.3,1.3Z"></path></g></g></svg> 